<?xml version="1.0" encoding="UTF-8"?> <svg xmlns="http://www.w3.org/2000/svg" id="Ebene_1" viewBox="0 0 1575.07 522.04"><defs><style>.cls-1{fill:#013984;}.cls-2{fill:#fff;}.cls-3{fill:#393a3a;}</style></defs><rect class="cls-3" x="504.9" y=".43" width="1070.18" height="207.19"></rect><path class="cls-3" d="m581.46,339.45l22.89-80.76h13.81l-31.14,100.07h-11l-31.07-100.07h13.75l22.75,80.76Z"></path><path class="cls-3" d="m683.9,312.51h-35.4v35.46h41.24v10.79h-53.82v-100.07h53.13v10.79h-40.55v32.24h35.4v10.79Z"></path><path class="cls-3" d="m740.29,318.29h-17.6v40.48h-12.65v-100.07h28.04c9.8,0,17.23,2.56,22.27,7.66,5.04,5.11,7.56,12.59,7.56,22.44,0,6.19-1.36,11.58-4.09,16.19-2.73,4.6-6.59,8.08-11.58,10.41l19.38,42.54v.83h-13.54l-17.8-40.48Zm-17.6-10.79h15.26c5.27,0,9.47-1.7,12.61-5.09,3.14-3.4,4.71-7.94,4.71-13.63,0-12.85-5.82-19.28-17.46-19.28h-15.12v38.01Z"></path><path class="cls-3" d="m851.59,346.33l-2.2,2.75c-6.32,7.38-15.58,11.07-27.77,11.07-10.81,0-19.3-3.58-25.46-10.76-6.16-7.17-9.31-17.31-9.45-30.41v-19.66c0-14.02,2.81-24.53,8.42-31.51,5.61-6.99,14.01-10.48,25.19-10.48,9.53,0,16.99,2.65,22.37,7.94,5.38,5.29,8.35,12.86,8.9,22.71h-12.58c-.5-6.23-2.23-11.1-5.19-14.61-2.96-3.5-7.43-5.26-13.44-5.26-7.2,0-12.46,2.35-15.81,7.04-3.35,4.7-5.09,12.2-5.22,22.51v20.41c0,10.08,1.93,17.81,5.77,23.2,3.85,5.38,9.37,8.08,16.56,8.08,6.78,0,11.94-1.64,15.46-4.93l1.86-1.71v-22.99h-18.28v-10.79h30.86v37.39Z"></path><path class="cls-3" d="m889.01,347.98h39.25v10.79h-51.89v-100.07h12.65v89.28Z"></path><path class="cls-3" d="m989.81,312.51h-35.4v35.46h41.24v10.79h-53.82v-100.07h53.13v10.79h-40.55v32.24h35.4v10.79Z"></path><path class="cls-3" d="m1029.09,358.77h-12.58v-100.07h12.58v100.07Z"></path><path class="cls-3" d="m1118.12,326.95c-.55,10.72-3.56,18.94-9.04,24.64-5.48,5.71-13.21,8.56-23.2,8.56s-18.01-3.82-23.92-11.44c-5.91-7.63-8.87-17.97-8.87-31.03v-18.15c0-13.01,3.04-23.3,9.11-30.86,6.07-7.56,14.35-11.34,24.85-11.34,9.67,0,17.15,2.89,22.44,8.66,5.29,5.77,8.17,14.04,8.63,24.81h-12.72c-.55-8.16-2.27-13.97-5.15-17.46-2.89-3.48-7.29-5.22-13.2-5.22-6.83,0-12.07,2.67-15.74,8.01s-5.5,13.16-5.5,23.47v18.35c0,10.13,1.71,17.89,5.12,23.3,3.41,5.41,8.4,8.11,14.95,8.11s11.27-1.63,14.16-4.88c2.89-3.25,4.67-9.1,5.36-17.53h12.72Z"></path><path class="cls-3" d="m1204.89,358.77h-12.65v-46.26h-40.28v46.26h-12.58v-100.07h12.58v43.03h40.28v-43.03h12.65v100.07Z"></path><path class="cls-2" d="m570.36,117.4v53.17h-17.07V34.76h43.28c12.62,0,22.54,3.78,29.76,11.33,7.21,7.56,10.82,17.61,10.82,30.18s-3.44,23.12-10.31,30.18c-6.87,7.06-16.56,10.71-29.06,10.96h-27.42Zm0-14.64h26.21c7.59,0,13.4-2.27,17.44-6.82,4.04-4.55,6.06-11.06,6.06-19.53s-2.08-14.7-6.25-19.62c-4.17-4.92-9.89-7.38-17.16-7.38h-26.3v53.36Z"></path><path class="cls-2" d="m705.93,115.63h-23.88v54.94h-17.16V34.76h38.06c13.31,0,23.38,3.47,30.22,10.4,6.84,6.93,10.26,17.09,10.26,30.46,0,8.4-1.85,15.72-5.55,21.97-3.7,6.25-8.94,10.96-15.72,14.13l26.3,57.74v1.12h-18.38l-24.16-54.94Zm-23.88-14.65h20.71c7.15,0,12.86-2.3,17.12-6.91,4.26-4.61,6.39-10.78,6.39-18.5,0-17.44-7.9-26.16-23.69-26.16h-20.52v51.58Z"></path><path class="cls-2" d="m860.35,114.61c0,18.53-3.95,32.8-11.85,42.81-7.9,10.01-19.12,15.02-33.67,15.02s-25.05-4.87-33.16-14.6c-8.12-9.73-12.33-23.49-12.64-41.28v-25.56c0-18.16,4.01-32.38,12.03-42.68,8.02-10.29,19.21-15.44,33.58-15.44s25.45,4.93,33.44,14.78c7.99,9.86,12.08,23.93,12.27,42.21v24.72Zm-17.07-23.79c0-14.37-2.35-25.05-7.04-32.04-4.7-7-11.89-10.49-21.59-10.49s-16.5,3.54-21.31,10.63c-4.82,7.09-7.26,17.54-7.32,31.34v24.35c0,13.87,2.41,24.44,7.23,31.71,4.82,7.28,12.02,10.91,21.59,10.91s16.66-3.36,21.27-10.07c4.6-6.72,6.99-17.01,7.18-30.88v-25.46Z"></path><path class="cls-2" d="m892.48,170.57V34.76h38.71c12.37,0,21.69,3.02,27.94,9.05,6.25,6.03,9.38,15.08,9.38,27.14,0,6.34-1.59,11.94-4.76,16.79-3.17,4.85-7.46,8.61-12.87,11.29,6.22,1.87,11.15,5.69,14.78,11.47,3.64,5.78,5.46,12.75,5.46,20.89,0,12.19-3.34,21.77-10.03,28.73-6.69,6.97-16.22,10.45-28.59,10.45h-40.02Zm17.07-77.89h21.92c5.91,0,10.68-1.99,14.32-5.98,3.64-3.99,5.46-9.29,5.46-15.89,0-7.48-1.65-12.92-4.94-16.31-3.3-3.4-8.33-5.1-15.11-5.1h-21.64v43.28Zm0,14.37v48.88h23.32c6.47,0,11.6-2.13,15.39-6.39,3.79-4.26,5.69-10.24,5.69-17.96,0-16.35-6.9-24.53-20.71-24.53h-23.69Z"></path><path class="cls-2" d="m1020.22,170.57h-17.07V34.76h17.07v135.81Z"></path><path class="cls-2" d="m1144.23,114.61c0,18.53-3.95,32.8-11.85,42.81-7.9,10.01-19.12,15.02-33.67,15.02s-25.05-4.87-33.16-14.6c-8.12-9.73-12.33-23.49-12.64-41.28v-25.56c0-18.16,4.01-32.38,12.03-42.68,8.02-10.29,19.22-15.44,33.58-15.44s25.45,4.93,33.44,14.78c7.99,9.86,12.08,23.93,12.27,42.21v24.72Zm-17.07-23.79c0-14.37-2.35-25.05-7.04-32.04-4.7-7-11.89-10.49-21.59-10.49s-16.5,3.54-21.31,10.63c-4.82,7.09-7.26,17.54-7.32,31.34v24.35c0,13.87,2.41,24.44,7.23,31.71,4.82,7.28,12.02,10.91,21.59,10.91s16.66-3.36,21.27-10.07c4.6-6.72,7-17.01,7.18-30.88v-25.46Z"></path><path class="cls-2" d="m1253.22,49.4h-35.73v121.17h-17.07V49.4h-35.63v-14.64h88.43v14.64Z"></path><path class="cls-2" d="m1296.82,170.57h-17.07V34.76h17.07v135.81Z"></path><path class="cls-2" d="m1362.9,107.98l-13.34,16.14v46.45h-17.07V34.76h17.07v65.57l11.19-14.83,36.57-50.74h20.52l-44.12,59.79,47.57,76.02h-20.43l-37.96-62.59Z"></path><path class="cls-2" d="m1505.66,135.03h-45.89l-10.54,35.54h-17.54l43.75-135.81h14.64l43.84,135.81h-17.54l-10.73-35.54Zm-41.42-14.65h37.03l-18.56-61.75-18.47,61.75Z"></path><polygon class="cls-1" points="0 0 0 422.86 204.69 522.04 406.4 422.86 406.4 0 0 0"></polygon><path id="Path_20313" class="cls-2" d="m178.61,289.18l-61.66-56.72c-7.4-4.93-9.87-14.8-4.93-22.2l2.47-2.47c4.93-7.4,14.8-9.87,22.2-4.93l2.47,2.47,49.33,44.39,96.19-106.05c4.93-7.4,12.33-9.87,19.73-4.93,2.47,0,2.47,2.47,2.47,2.47,7.4,4.93,9.87,14.8,4.93,22.2l-2.47,2.47-108.52,118.38m0,0c-6.18,6.93-11.41,13.76-19.57,7.13l-2.68-2.24"></path></svg> 